<?xml version="1.0" encoding="UTF-8"?>
<svg width="13px" height="23px" viewBox="0 0 13 23" version="1.1" xmlns="http://www.w3.org/2000/svg" xmlns:xlink="http://www.w3.org/1999/xlink">
    <!-- Generator: Sketch 52.6 (67491) - http://www.bohemiancoding.com/sketch -->
    <title>facebook_icon</title>
    <desc>Created with Sketch.</desc>
    <g id="Page-1" stroke="none" stroke-width="1" fill="none" fill-rule="evenodd">
        <g id="iPhone-SE" transform="translate(-70.000000, -1457.000000)" fill="#FFFFFF">
            <g id="footer" transform="translate(0.000000, 1330.000000)">
                <g id="social" transform="translate(70.000000, 93.000000)">
                    <g id="facebook_icon" transform="translate(0.000000, 34.000000)">
                        <path d="M12.8782272,3.76909292 L12.8782272,0.136821347 C12.7321636,0.136821347 12.5860609,0.136571468 12.4399973,0.136857061 C12.0882874,0.137571041 11.7365384,0.13607171 11.3847894,0.136892774 C10.9558253,0.13789229 10.5269394,0.135250647 10.0979363,0.13692843 C9.71999283,0.138427761 9.34193205,0.133465724 8.96402762,0.13703557 C8.39353515,0.142425939 7.85201292,0.168021418 7.30486091,0.328912323 C6.77733512,0.484055783 6.28218111,0.755681921 5.86033255,1.08146185 C5.61605913,1.27009006 5.3899655,1.47210506 5.18517938,1.69668121 C5.10225622,1.78996006 5.02500201,1.88695155 4.95286944,1.98726295 C4.73635436,2.28823275 4.56530829,2.61926031 4.42245058,2.97020739 C4.39035254,3.04920703 4.35880186,3.12842088 4.32873683,3.20802747 C4.10846855,3.7907616 4.10119663,4.42686427 4.10119663,5.03922777 C4.10119663,5.11590712 4.10119663,5.19497818 4.10119663,5.27586982 C4.10119663,6.48903072 4.10119663,8.1064 4.10119663,8.1064 L0.308860154,8.1064 L0.308860154,12.1045761 L3.96435978,12.1045761 L4.0621004,12.1045761 L4.0621004,22.1357143 L8.40178446,22.1357143 L8.40178446,12.0153311 L12.3406537,12.0638447 L12.8716981,8.13260232 L8.4212544,8.124249 L8.4212544,5.08991897 C8.4212544,5.08991897 8.41148034,3.79586643 9.61369006,3.77801743 L12.8782272,3.76909292 Z" id="f"></path>
                    </g>
                </g>
            </g>
        </g>
    </g>
</svg>