<?xml version="1.0" encoding="UTF-8"?>
<svg width="119px" height="52px" viewBox="0 0 119 52" version="1.1" xmlns="http://www.w3.org/2000/svg" xmlns:xlink="http://www.w3.org/1999/xlink">
    <!-- Generator: Sketch 52.6 (67491) - http://www.bohemiancoding.com/sketch -->
    <title>header_logo</title>
    <desc>Created with Sketch.</desc>
    <g id="header_logo" stroke="none" stroke-width="1" fill="none" fill-rule="evenodd">
        <g fill="#000000">
            <g id="leaf_logo" transform="translate(46.000000, 0.000000)">
                <polygon id="Triangle" transform="translate(5.698993, 46.337468) rotate(17.000000) translate(-5.698993, -46.337468) " points="5.7301597 41.8718274 7.95853855 50.7874852 3.43944695 50.8031091"></polygon>
                <path d="M4.72491631,44.4363636 C2.87831125,41.2019666 1.68544735,38.7430738 1.14632461,37.0596852 C0.607201867,35.3762966 0.225093665,32.9174038 0,29.6830067 L8.69585191,30.0463114 L0.45662998,26.3079559 C1.07778521,24.0603073 1.68691974,22.408818 2.28403356,21.353488 C2.88114738,20.2981581 4.05552811,18.7974894 5.80717575,16.851482 L12.5393199,19.5621613 L7.34959981,15.4133382 C8.8650724,13.7910124 10.0871706,12.6331896 11.0158945,11.9398699 C11.9446184,11.2465502 13.3488973,10.443705 15.2287313,9.53133436 L20.5077008,12.3796258 L18.0462731,8.02729179 C20.3889543,6.61706165 22.1877126,5.59627674 23.4425481,4.96493706 C24.6973836,4.33359738 26.3377463,3.62407291 28.3636364,2.83636364 L6.18891576,42.1348598 L4.72491631,44.4363636 Z" id="Path"></path>
                <path d="M7.56363636,41.6 C11.0171049,41.4757488 13.5781429,41.219796 15.2467504,40.8321415 C16.9153578,40.4444871 19.0634427,39.6064064 21.6910052,38.3178995 L16.9748114,31.2672306 L24.5634528,36.1473881 C26.2418811,34.5764805 27.4111251,33.2932769 28.0711848,32.2977775 C28.7312445,31.302278 29.488556,29.6798582 30.3431192,27.4305179 L23.7403167,22.7165291 L31.2357976,23.980529 C31.6976232,21.8396852 31.9767402,20.2293035 32.0731484,19.1493838 C32.1695566,18.0694641 32.1695566,16.5533091 32.0731484,14.6009188 L26.9620067,11.7339176 L32.0731484,11.9510332 C31.9584425,9.44745658 31.8312398,7.51218959 31.6915404,6.14523225 C31.5518409,4.77827491 31.2719222,2.72986416 30.8517841,0 L7.56363636,41.6 Z" id="Path-2"></path>
            </g>
            <path d="M3.5502397,18.3305664 L3.5502397,34 L1.46283736,34 L1.46283736,18.3305664 L3.5502397,18.3305664 Z M9.28168501,24.9638672 L9.28168501,34 L7.19428267,34 L7.19428267,24.9638672 L9.28168501,24.9638672 Z M6.87885298,21.206543 C6.87885298,20.8416323 7.01182691,20.5262058 7.27777876,20.2602539 C7.54373061,19.9943021 7.86224956,19.8613281 8.23334517,19.8613281 C8.6106257,19.8613281 8.93223707,19.9943021 9.19818892,20.2602539 C9.46414077,20.5200208 9.5971147,20.8385398 9.5971147,21.2158203 C9.5971147,21.5931008 9.46414077,21.9147122 9.19818892,22.1806641 C8.938422,22.4466159 8.61990305,22.5795898 8.24262251,22.5795898 C7.86534198,22.5795898 7.54373061,22.4466159 7.27777876,22.1806641 C7.01182691,21.9147122 6.87885298,21.5900084 6.87885298,21.206543 Z M15.0780717,26.9121094 L15.0780717,34 L12.9906694,34 L12.9906694,26.9121094 L12.1000444,26.9121094 L12.1000444,24.9638672 L12.9906694,24.9638672 L12.9906694,21.6518555 L15.0780717,21.6518555 L15.0780717,24.9638672 L16.7016069,24.9638672 L16.7016069,26.9121094 L15.0780717,26.9121094 Z M21.2733842,26.9121094 L21.2733842,34 L19.1859819,34 L19.1859819,26.9121094 L18.2953569,26.9121094 L18.2953569,24.9638672 L19.1859819,24.9638672 L19.1859819,21.6518555 L21.2733842,21.6518555 L21.2733842,24.9638672 L22.8969194,24.9638672 L22.8969194,26.9121094 L21.2733842,26.9121094 Z M27.4037553,18.3305664 L27.4037553,34 L25.316353,34 L25.316353,18.3305664 L27.4037553,18.3305664 Z M39.2768022,29.9736328 L32.8012163,29.9736328 C32.8568806,30.715824 33.0980891,31.3064757 33.5248491,31.7456055 C33.951609,32.1785503 34.4989668,32.3950195 35.1669389,32.3950195 C35.6864728,32.3950195 36.1163187,32.2713229 36.4564897,32.0239258 C36.7904757,31.7765287 37.170843,31.318851 37.597603,30.6508789 L39.3602983,31.6342773 C39.0881615,32.0981469 38.8005667,32.4955224 38.4975053,32.826416 C38.1944439,33.1573096 37.8697401,33.4294423 37.5233842,33.6428223 C37.1770283,33.8562022 36.8028459,34.0123693 36.4008256,34.1113281 C35.9988054,34.210287 35.5627746,34.2597656 35.0927202,34.2597656 C33.7444061,34.2597656 32.6620602,33.8268272 31.8456499,32.9609375 C31.0292395,32.0888628 30.6210405,30.9322989 30.6210405,29.4912109 C30.6210405,28.0624929 31.0168699,26.9059289 31.8085405,26.0214844 C32.606396,25.1494097 33.6640026,24.7133789 34.981392,24.7133789 C36.3111513,24.7133789 37.3625731,25.13704 38.1356889,25.984375 C38.9026198,26.825525 39.2860795,27.9913662 39.2860795,29.4819336 L39.2768022,29.9736328 Z M37.1337358,28.2666016 C36.8430442,27.1533147 36.1410656,26.5966797 35.0277788,26.5966797 C34.7741968,26.5966797 34.5360807,26.6353349 34.3134233,26.7126465 C34.0907659,26.7899581 33.8882126,26.9012851 33.7057573,27.0466309 C33.5233019,27.1919766 33.3671349,27.3666982 33.2372514,27.5708008 C33.107368,27.7749034 33.0084106,28.0068346 32.9403764,28.2666016 L37.1337358,28.2666016 Z" id="little"></path>
            <path d="M85.4047852,18.3305664 L85.4047852,34 L83.3173828,34 L83.3173828,18.3305664 L85.4047852,18.3305664 Z M97.277832,29.9736328 L90.8022461,29.9736328 C90.8579104,30.715824 91.099119,31.3064757 91.5258789,31.7456055 C91.9526389,32.1785503 92.4999967,32.3950195 93.1679688,32.3950195 C93.6875026,32.3950195 94.1173486,32.2713229 94.4575195,32.0239258 C94.7915056,31.7765287 95.1718729,31.318851 95.5986328,30.6508789 L97.3613281,31.6342773 C97.0891913,32.0981469 96.8015966,32.4955224 96.4985352,32.826416 C96.1954737,33.1573096 95.87077,33.4294423 95.5244141,33.6428223 C95.1780582,33.8562022 94.8038757,34.0123693 94.4018555,34.1113281 C93.9998352,34.210287 93.5638044,34.2597656 93.09375,34.2597656 C91.745436,34.2597656 90.66309,33.8268272 89.8466797,32.9609375 C89.0302694,32.0888628 88.6220703,30.9322989 88.6220703,29.4912109 C88.6220703,28.0624929 89.0178997,26.9059289 89.8095703,26.0214844 C90.6074259,25.1494097 91.6650325,24.7133789 92.9824219,24.7133789 C94.3121811,24.7133789 95.3636029,25.13704 96.1367188,25.984375 C96.9036497,26.825525 97.2871094,27.9913662 97.2871094,29.4819336 L97.277832,29.9736328 Z M95.1347656,28.2666016 C94.8440741,27.1533147 94.1420954,26.5966797 93.0288086,26.5966797 C92.7752266,26.5966797 92.5371105,26.6353349 92.3144531,26.7126465 C92.0917958,26.7899581 91.8892424,26.9012851 91.7067871,27.0466309 C91.5243318,27.1919766 91.3681647,27.3666982 91.2382812,27.5708008 C91.1083978,27.7749034 91.0094404,28.0068346 90.9414062,28.2666016 L95.1347656,28.2666016 Z M107.221191,24.9638672 L109.317871,24.9638672 L109.317871,34 L107.221191,34 L107.221191,33.0537109 C106.361487,33.8577514 105.436854,34.2597656 104.447266,34.2597656 C103.19791,34.2597656 102.165043,33.8082727 101.348633,32.9052734 C100.538407,31.9837194 100.133301,30.8333402 100.133301,29.4541016 C100.133301,28.0996026 100.538407,26.9708704 101.348633,26.0678711 C102.158858,25.1648718 103.173171,24.7133789 104.391602,24.7133789 C105.443039,24.7133789 106.386226,25.1463173 107.221191,26.012207 L107.221191,24.9638672 Z M102.26709,29.4541016 C102.26709,30.3199913 102.499021,31.0250624 102.962891,31.5693359 C103.43913,32.1197944 104.039059,32.3950195 104.762695,32.3950195 C105.535811,32.3950195 106.160479,32.1290717 106.636719,31.597168 C107.112958,31.0467095 107.351074,30.3478232 107.351074,29.5004883 C107.351074,28.6531533 107.112958,27.9542671 106.636719,27.4038086 C106.160479,26.86572 105.541996,26.5966797 104.78125,26.5966797 C104.063798,26.5966797 103.46387,26.8688124 102.981445,27.4130859 C102.505206,27.9635444 102.26709,28.6438762 102.26709,29.4541016 Z M115.114258,26.9121094 L115.114258,34 L113.017578,34 L113.017578,26.9121094 L112.275391,26.9121094 L112.275391,24.9638672 L113.017578,24.9638672 L113.017578,21.4755859 C113.017578,20.3375594 113.215493,19.533531 113.611328,19.0634766 C114.155602,18.4078743 114.94726,18.0800781 115.986328,18.0800781 C116.357424,18.0800781 116.824379,18.1883127 117.387207,18.4047852 L117.387207,20.5385742 L117.173828,20.4272461 C116.722328,20.1984038 116.351238,20.0839844 116.060547,20.0839844 C115.689451,20.0839844 115.438965,20.2169583 115.309082,20.4829102 C115.179199,20.7426771 115.114258,21.2436486 115.114258,21.9858398 L115.114258,24.9638672 L117.387207,24.9638672 L117.387207,26.9121094 L115.114258,26.9121094 Z" id="leaf"></path>
        </g>
    </g>
</svg>