<?xml version="1.0" encoding="UTF-8"?>
<svg width="42px" height="67px" viewBox="0 0 42 67" version="1.1" xmlns="http://www.w3.org/2000/svg" xmlns:xlink="http://www.w3.org/1999/xlink">
    <!-- Generator: Sketch 52.6 (67491) - http://www.bohemiancoding.com/sketch -->
    <title>leaf_logo</title>
    <desc>Created with Sketch.</desc>
    <g id="Page-1" stroke="none" stroke-width="1" fill="none" fill-rule="evenodd">
        <g id="iPhone-SE" transform="translate(-97.000000, -158.000000)" fill="#FFFFFF">
            <g id="side_menu">
                <g id="leaf_logo" transform="translate(97.000000, 158.000000)">
                    <polygon id="Triangle" transform="translate(7.467515, 60.594925) rotate(17.000000) translate(-7.467515, -60.594925) " points="7.51683594 54.7528587 10.4293261 66.4122677 4.50570461 66.4369915"></polygon>
                    <path d="M6.16359275,58 C3.75472012,53.8015038 2.19864446,50.6096718 1.49536575,48.4245039 C0.792087051,46.239336 0.2936318,43.047504 0,38.8490079 L11.3436273,39.3206053 L0.595667954,34.4679322 C1.40595699,31.5503114 2.20056517,29.4065513 2.97949249,28.0366518 C3.75841982,26.6667524 5.29038442,24.718769 7.57538632,22.1927017 L16.3573821,25.7113719 L9.58745872,20.3258804 C11.5643733,18.2199768 13.1585848,16.7170337 14.3700932,15.8170514 C15.5816015,14.917069 17.4134654,13.8749142 19.8656848,12.690587 L26.7520328,16.3878883 L23.5411318,10.738224 C26.5971295,8.90763684 28.9435867,7.58257951 30.5805035,6.76305204 C32.2174203,5.94352458 34.3572524,5.02250723 37,4 L8.07336127,55.0124709 L6.16359275,58 Z" id="Path"></path>
                    <path d="M10,54 C14.4956396,53.8387124 17.8295352,53.5064659 20.0016869,53.0032607 C22.1738386,52.5000554 24.9701621,51.4121622 28.3906576,49.7395811 L22.2512337,40.5872705 L32.1299385,46.9220903 C34.3148748,44.8829314 35.8369676,43.2172345 36.6962169,41.9249996 C37.5554662,40.6327648 38.5413155,38.526739 39.6537646,35.6069223 L31.0584004,29.4878022 L40.8158312,31.1285714 C41.4170243,28.3495914 41.7803718,26.259192 41.9058736,24.8573732 C42.0313755,23.4555544 42.0313755,21.4874685 41.9058736,18.9531157 L35.2523164,15.2315277 L41.9058736,15.5133604 C41.7565524,12.2635254 41.5909631,9.75139995 41.4091058,7.97698417 C41.2272485,6.20256839 40.8628572,3.54357367 40.3159319,0 L10,54 Z" id="Path-2"></path>
                </g>
            </g>
        </g>
    </g>
</svg>