<?xml version="1.0" encoding="UTF-8"?>
<svg width="33px" height="52px" viewBox="0 0 33 52" version="1.1" xmlns="http://www.w3.org/2000/svg" xmlns:xlink="http://www.w3.org/1999/xlink">
    <!-- Generator: Sketch 52.6 (67491) - http://www.bohemiancoding.com/sketch -->
    <title>leaf_logo</title>
    <desc>Created with Sketch.</desc>
    <g id="Page-1" stroke="none" stroke-width="1" fill="none" fill-rule="evenodd">
        <g id="iPhone-SE" transform="translate(-144.000000, -4.000000)" fill="#000000">
            <g id="top_bar">
                <g id="header_logo" transform="translate(98.000000, 4.000000)">
                    <g id="leaf_logo" transform="translate(46.000000, 0.000000)">
                        <polygon id="Triangle" transform="translate(5.698993, 46.337468) rotate(17.000000) translate(-5.698993, -46.337468) " points="5.7301597 41.8718274 7.95853855 50.7874852 3.43944695 50.8031091"></polygon>
                        <path d="M4.72491631,44.4363636 C2.87831125,41.2019666 1.68544735,38.7430738 1.14632461,37.0596852 C0.607201867,35.3762966 0.225093665,32.9174038 0,29.6830067 L8.69585191,30.0463114 L0.45662998,26.3079559 C1.07778521,24.0603073 1.68691974,22.408818 2.28403356,21.353488 C2.88114738,20.2981581 4.05552811,18.7974894 5.80717575,16.851482 L12.5393199,19.5621613 L7.34959981,15.4133382 C8.8650724,13.7910124 10.0871706,12.6331896 11.0158945,11.9398699 C11.9446184,11.2465502 13.3488973,10.443705 15.2287313,9.53133436 L20.5077008,12.3796258 L18.0462731,8.02729179 C20.3889543,6.61706165 22.1877126,5.59627674 23.4425481,4.96493706 C24.6973836,4.33359738 26.3377463,3.62407291 28.3636364,2.83636364 L6.18891576,42.1348598 L4.72491631,44.4363636 Z" id="Path"></path>
                        <path d="M7.56363636,41.6 C11.0171049,41.4757488 13.5781429,41.219796 15.2467504,40.8321415 C16.9153578,40.4444871 19.0634427,39.6064064 21.6910052,38.3178995 L16.9748114,31.2672306 L24.5634528,36.1473881 C26.2418811,34.5764805 27.4111251,33.2932769 28.0711848,32.2977775 C28.7312445,31.302278 29.488556,29.6798582 30.3431192,27.4305179 L23.7403167,22.7165291 L31.2357976,23.980529 C31.6976232,21.8396852 31.9767402,20.2293035 32.0731484,19.1493838 C32.1695566,18.0694641 32.1695566,16.5533091 32.0731484,14.6009188 L26.9620067,11.7339176 L32.0731484,11.9510332 C31.9584425,9.44745658 31.8312398,7.51218959 31.6915404,6.14523225 C31.5518409,4.77827491 31.2719222,2.72986416 30.8517841,0 L7.56363636,41.6 Z" id="Path-2"></path>
                    </g>
                </g>
            </g>
        </g>
    </g>
</svg>