<?xml version="1.0" encoding="UTF-8"?>
<svg width="30px" height="23px" viewBox="0 0 30 23" version="1.1" xmlns="http://www.w3.org/2000/svg" xmlns:xlink="http://www.w3.org/1999/xlink">
    <!-- Generator: Sketch 52.6 (67491) - http://www.bohemiancoding.com/sketch -->
    <title>twitter_icon</title>
    <desc>Created with Sketch.</desc>
    <g id="Page-1" stroke="none" stroke-width="1" fill="none" fill-rule="evenodd">
        <g id="iPhone-SE" transform="translate(-112.000000, -1457.000000)" fill="#FFFFFF">
            <g id="footer" transform="translate(0.000000, 1330.000000)">
                <g id="social" transform="translate(70.000000, 93.000000)">
                    <g id="twitter_icon" transform="translate(42.000000, 34.000000)">
                        <path d="M26.6221785,3.64557459 C26.6221785,3.64557459 29.2269526,1.60026828 29.1444301,0.687542559 C29.1444301,0.687542559 26.1389595,1.91911797 25.4788784,1.97410479 C25.4788784,1.97410479 25.2698774,1.77791439 24.9277725,1.51995617 C24.8137045,1.43397007 24.6849022,1.34111065 24.5439859,1.24640599 C24.2830685,1.06866763 24.0083561,0.915931573 23.7231121,0.786537299 C23.5805148,0.721863245 23.4353463,0.662955352 23.2881507,0.60939861 C22.32997,0.217663718 21.2802185,0.121713555 20.2497997,0.226889623 C20.1025546,0.24192801 19.9558041,0.261071894 19.8096961,0.283998437 C18.1006546,0.533607165 16.6390817,1.50127354 15.7193193,2.82063405 C15.6367473,2.94098692 15.5602076,3.0645227 15.4904417,3.19119539 C15.3511077,3.44454061 15.2388197,3.71043323 15.1598572,3.98781215 C15.1288556,4.09022047 15.0949369,4.20946618 15.0629464,4.33678462 C15.0309065,4.46410314 15.0006961,4.59949432 14.9771111,4.7341935 C14.8828209,5.27303655 14.9771111,7.02145105 14.9771111,7.02145105 C14.9771111,7.02145105 7.37490485,7.24139833 2.49529827,1.34733815 C2.49529827,1.34733815 0.0909218604,5.59193241 4.23969253,8.56094334 C4.23969253,8.56094334 3.39597533,8.91282205 1.80233674,8.03312535 C1.80233674,8.03312535 1.01023934,11.2659991 6.14908228,13.4872448 L3.650465,13.4872448 C3.650465,13.4872448 4.52266213,17.0720435 9.16656776,17.4019182 C9.16656776,17.4019182 6.97430728,20.1509819 0.609592409,19.7330914 C0.609592409,19.7330914 6.35205102,23.4583094 13.7502008,21.7294078 C13.8822665,21.6985008 14.0149255,21.665887 14.1480789,21.6315202 C15.3190184,21.2945415 16.4976711,20.8987011 17.5681892,20.3678384 C17.6615895,20.3226773 17.7550391,20.276409 17.8485877,20.2290798 C18.1292829,20.0873688 18.4111153,19.936478 18.6940355,19.776269 C18.6940355,19.776269 26.4726096,15.8441123 27.1090069,5.68409991 C27.1090069,5.68409991 28.7437831,4.78913416 29.7926941,3.07374868 C29.7926941,3.07379485 26.8461116,3.71154031 26.6221785,3.64557459 Z" id="twitter_bird"></path>
                    </g>
                </g>
            </g>
        </g>
    </g>
</svg>