<?xml version="1.0" encoding="UTF-8"?>
<svg width="32px" height="22px" viewBox="0 0 32 22" version="1.1" xmlns="http://www.w3.org/2000/svg" xmlns:xlink="http://www.w3.org/1999/xlink">
    <!-- Generator: Sketch 52.6 (67491) - http://www.bohemiancoding.com/sketch -->
    <title>youtube_icon</title>
    <desc>Created with Sketch.</desc>
    <g id="Page-1" stroke="none" stroke-width="1" fill="none" fill-rule="evenodd">
        <g id="iPhone-SE" transform="translate(-218.000000, -1457.000000)" fill="#FFFFFF" fill-rule="nonzero">
            <g id="footer" transform="translate(0.000000, 1330.000000)">
                <g id="social" transform="translate(70.000000, 93.000000)">
                    <g id="youtube_icon" transform="translate(148.000000, 34.000000)">
                        <path d="M22.0054327,0.300884593 C18.9760306,0.215156966 15.9451143,0.194941469 12.9150334,0.240238179 C4.33667891,0.397096131 0.736911132,0.270536276 0.304803191,6.61056736 C0.211552286,9.29280326 0.204764672,11.9686686 0.284597075,14.6500518 C0.7126324,21.5628878 3.02088009,21.4358262 12.9150857,21.6513743 C15.6782057,21.6927081 18.4420046,21.6795154 21.2048114,21.6118463 C28.1646409,21.4277 31.4016908,21.5902764 31.8314491,14.6463398 C31.9110727,11.9663109 31.9043374,9.29154919 31.8110864,6.61066765 C31.3806493,0.244953462 27.6481581,0.455334759 22.0054327,0.300884593 Z M13.3164648,15.1724138 C13.3000238,12.3551387 13.3015091,9.53619192 13.3209208,6.71921186 C16.0502912,8.1093383 18.8100853,9.54086274 21.5635283,10.9470174 C18.8124413,12.3485995 16.0511619,13.7793374 13.3164648,15.1724138 Z" id="Shape"></path>
                    </g>
                </g>
            </g>
        </g>
    </g>
</svg>